<svg xmlns="http://www.w3.org/2000/svg" width="26" height="26" fill="#000" fill-rule="evenodd" xmlns:v="https://vecta.io/nano"><path d="M20.462 11.687c-1.419-.033-2.55 1.192-2.569 2.569-.019 1.431 1.115 2.579 2.386 2.652 1.526.088 2.694-1.196 2.695-2.574.001-1.46-1.084-2.621-2.513-2.647zm-5.025 1.289V.372c0-.36.005-.365.365-.365l3.806.003c3.095.052 5.683 2.32 6.249 5.368a8.24 8.24 0 0 1 .135 1.476l.006 12.408c-.001 2.844-1.679 5.342-4.254 6.323-.716.273-1.462.403-2.224.409l-3.664.002c-.419 0-.419 0-.419-.442v-12.58zm-5.309 10.902V2.105h-.275c-1.061 0-2.122-.008-3.183.004a6.15 6.15 0 0 0-1.058.098c-1.99.371-3.546 2.297-3.547 4.382l.007 12.852c.006 1.279.518 2.363 1.428 3.236.874.838 1.927 1.207 3.108 1.212H9.91c.069 0 .139-.009.218-.014zm2.06-10.875v12.635c0 .329-.034.363-.353.363l-5.204-.002c-1.775 0-3.328-.6-4.618-1.86-.958-.937-1.577-2.087-1.845-3.423-.078-.388-.14-.788-.141-1.183L.043 6.481C.093 3.755 1.45 1.783 3.837.596c.88-.437 1.825-.598 2.8-.596h5.18c.357 0 .37.012.37.391v12.611zM4.064 8.111c-.039-1.26 1.023-2.428 2.422-2.423 1.364.005 2.46 1.029 2.451 2.478-.009 1.44-1.221 2.427-2.479 2.396-1.355-.033-2.404-1.086-2.395-2.451z"/></svg>