<svg xmlns="http://www.w3.org/2000/svg" width="30" height="23" fill="#000" fill-rule="evenodd" xmlns:v="https://vecta.io/nano"><path d="M4.945 19.162c.728.264 2.044.189 2.94-.167l2.428-.976v2.825l-.483.088c-2.429.439-5.019.256-7.567-.674-2.377-.74-2.774-2.282-1.69-3.172 1.003-.822 2.705-1.439 2.705-1.439l7.035-2.768v3.154L5.25 18.041c-.896.355-1.031.859-.305 1.121zm24.785-.564c-.594.638-2.045 1.093-2.045 1.093L16.875 23v-2.439l7.954-2.417c.903-.275 1.042-.665.309-.869s-2.059-.146-2.962.129l-5.301 1.592v-2.531l.304-.088s1.534-.463 3.685-.668c2.154-.199 4.792.028 6.862.698 2.334.628 2.595 1.555 2.003 2.191zm-11.698-5.781V5.629c0-.842-.155-1.617-.947-1.838-.607-.198-.981.368-.981 1.21V23l-4.854-1.541V0c2.065.383 5.07 1.288 6.687 1.831 4.108 1.413 5.501 3.17 5.501 7.127 0 3.858-2.38 5.321-5.405 3.859z"/></svg>