<svg xmlns="http://www.w3.org/2000/svg" width="30" height="30" fill="none" xmlns:v="https://vecta.io/nano"><path d="M5.128 26.291C7.764 28.601 11.221 30 15 30a14.95 14.95 0 0 0 9.878-3.709c2.346-2.39-5.395-10.886-9.878-14.271-4.477 3.385-12.224 11.881-9.872 14.271zm13.95-18.008c3.125 3.701 9.355 12.891 7.595 16.14C28.753 21.85 30 18.576 30 15.005c0-4.175-1.706-7.953-4.462-10.67 0 0-.034-.027-.103-.053a1.03 1.03 0 0 0-.351-.056c-.74 0-2.481.542-6.006 4.057zM4.568 4.283c-.071.025-.103.051-.107.053C1.706 7.053 0 10.83 0 15.005c0 3.568 1.248 6.841 3.326 9.416-1.751-3.256 4.474-12.439 7.6-16.138-3.525-3.516-5.27-4.056-6.008-4.056-.164 0-.279.026-.351.058v-.003zM15 4.439s-3.681-2.154-6.556-2.256c-1.129-.041-1.817.369-1.901.424C9.224.808 12.074 0 14.98 0H15c2.918 0 5.756.808 8.458 2.606-.085-.058-.769-.465-1.9-.424C18.683 2.285 15 4.431 15 4.431v.007z" fill="#000"/></svg>