<svg xmlns="http://www.w3.org/2000/svg" width="26" height="23" fill="none" xmlns:v="https://vecta.io/nano"><path d="M23.93 0H2.07C.929 0 0 .918 0 2.045V16.4c0 1.128.929 2.045 2.07 2.045h8.248l-1.981 2.053c-.14.194-.215.425-.215.663v.696c0 .303.122.593.339.808s.511.335.817.335h7.445c.307 0 .601-.12.817-.335s.338-.505.339-.808v-.696c0-.238-.075-.469-.215-.663l-1.981-2.053h8.248c1.141 0 2.07-.918 2.07-2.045V2.045C26 .918 25.072 0 23.93 0zm-.242 16.161H13.001 2.312V2.285h21.377v13.877z" fill="#000"/></svg>